<mxfile host="app.diagrams.net" modified="2021-12-27T03:44:08.416Z" agent="5.0 (Windows NT 10.0; WOW64) AppleWebKit/537.36 (KHTML, like Gecko) Chrome/96.0.4664.110 Safari/537.36" etag="1L5_T63o9cbztmtoksH_" version="16.0.0" type="github">
  <diagram id="WLfXLkUaOFlXgeGMpdFd" name="Page-1">
    <mxGraphModel dx="1422" dy="762" grid="0" gridSize="10" guides="1" tooltips="1" connect="1" arrows="1" fold="1" page="0" pageScale="1" pageWidth="827" pageHeight="1169" math="0" shadow="0">
      <root>
        <mxCell id="0" />
        <mxCell id="1" parent="0" />
        <mxCell id="eqYno9CEwsZ71HCwjGfu-16" value="" style="edgeStyle=orthogonalEdgeStyle;rounded=0;orthogonalLoop=1;jettySize=auto;entryX=0;entryY=0.5;entryDx=0;entryDy=0;fontSize=14;html=1;labelBackgroundColor=default;verticalAlign=middle;sketch=1;" parent="1" source="65xvG_B39mxmELKuKY_q-1" target="eqYno9CEwsZ71HCwjGfu-1" edge="1">
          <mxGeometry relative="1" as="geometry" />
        </mxCell>
        <mxCell id="eqYno9CEwsZ71HCwjGfu-17" style="edgeStyle=orthogonalEdgeStyle;rounded=0;orthogonalLoop=1;jettySize=auto;html=1;entryX=0;entryY=0.5;entryDx=0;entryDy=0;fontSize=14;sketch=1;" parent="1" source="65xvG_B39mxmELKuKY_q-1" target="eqYno9CEwsZ71HCwjGfu-2" edge="1">
          <mxGeometry relative="1" as="geometry" />
        </mxCell>
        <mxCell id="65xvG_B39mxmELKuKY_q-1" value="&lt;b&gt;&lt;font style=&quot;font-size: 14px&quot;&gt;RUNNING&lt;/font&gt;&lt;/b&gt;" style="rounded=1;whiteSpace=wrap;html=1;fillColor=#d5e8d4;strokeColor=#82b366;sketch=1;" parent="1" vertex="1">
          <mxGeometry x="2" y="306" width="136" height="70" as="geometry" />
        </mxCell>
        <mxCell id="eqYno9CEwsZ71HCwjGfu-18" style="edgeStyle=orthogonalEdgeStyle;rounded=0;orthogonalLoop=1;jettySize=auto;html=1;entryX=0;entryY=0.5;entryDx=0;entryDy=0;fontSize=14;sketch=1;" parent="1" source="eqYno9CEwsZ71HCwjGfu-1" target="eqYno9CEwsZ71HCwjGfu-3" edge="1">
          <mxGeometry relative="1" as="geometry" />
        </mxCell>
        <mxCell id="eqYno9CEwsZ71HCwjGfu-1" value="&lt;span style=&quot;font-size: 14px&quot;&gt;&lt;b&gt;SHUTDOWN&lt;/b&gt;&lt;/span&gt;" style="rounded=1;whiteSpace=wrap;html=1;fillColor=#dae8fc;strokeColor=#6c8ebf;sketch=1;" parent="1" vertex="1">
          <mxGeometry x="304" y="199" width="136" height="70" as="geometry" />
        </mxCell>
        <mxCell id="eqYno9CEwsZ71HCwjGfu-20" style="edgeStyle=orthogonalEdgeStyle;rounded=0;orthogonalLoop=1;jettySize=auto;html=1;entryX=0;entryY=0.5;entryDx=0;entryDy=0;fontSize=14;sketch=1;" parent="1" source="eqYno9CEwsZ71HCwjGfu-2" target="eqYno9CEwsZ71HCwjGfu-3" edge="1">
          <mxGeometry relative="1" as="geometry" />
        </mxCell>
        <mxCell id="eqYno9CEwsZ71HCwjGfu-2" value="&lt;span style=&quot;font-size: 14px&quot;&gt;&lt;b&gt;STOP&lt;/b&gt;&lt;/span&gt;" style="rounded=1;whiteSpace=wrap;html=1;fillColor=#ffe6cc;strokeColor=#d79b00;sketch=1;" parent="1" vertex="1">
          <mxGeometry x="302" y="405" width="136" height="70" as="geometry" />
        </mxCell>
        <mxCell id="eqYno9CEwsZ71HCwjGfu-21" style="edgeStyle=orthogonalEdgeStyle;rounded=0;orthogonalLoop=1;jettySize=auto;html=1;fontSize=14;sketch=1;" parent="1" source="eqYno9CEwsZ71HCwjGfu-3" target="eqYno9CEwsZ71HCwjGfu-4" edge="1">
          <mxGeometry relative="1" as="geometry" />
        </mxCell>
        <mxCell id="eqYno9CEwsZ71HCwjGfu-3" value="&lt;span style=&quot;font-size: 14px&quot;&gt;&lt;b&gt;TIDYING&lt;/b&gt;&lt;/span&gt;" style="rounded=1;whiteSpace=wrap;html=1;fillColor=#f5f5f5;strokeColor=#666666;sketch=1;fontColor=#333333;" parent="1" vertex="1">
          <mxGeometry x="582" y="310" width="136" height="70" as="geometry" />
        </mxCell>
        <mxCell id="eqYno9CEwsZ71HCwjGfu-4" value="&lt;span style=&quot;font-size: 14px&quot;&gt;&lt;b&gt;TERMINATED&lt;/b&gt;&lt;/span&gt;" style="rounded=1;whiteSpace=wrap;html=1;fillColor=#f8cecc;strokeColor=#b85450;sketch=1;" parent="1" vertex="1">
          <mxGeometry x="840" y="310" width="136" height="70" as="geometry" />
        </mxCell>
        <mxCell id="InmXNxn3KJAxk9QooRhl-2" value="&lt;b&gt;shutdown()&lt;/b&gt;" style="text;html=1;strokeColor=none;fillColor=none;align=center;verticalAlign=middle;whiteSpace=wrap;rounded=0;sketch=1;" vertex="1" parent="1">
          <mxGeometry x="147" y="266" width="60" height="30" as="geometry" />
        </mxCell>
        <mxCell id="InmXNxn3KJAxk9QooRhl-3" value="&lt;b&gt;shutdownNow()&lt;/b&gt;" style="text;html=1;strokeColor=none;fillColor=none;align=center;verticalAlign=middle;whiteSpace=wrap;rounded=0;sketch=1;" vertex="1" parent="1">
          <mxGeometry x="141" y="386" width="60" height="30" as="geometry" />
        </mxCell>
        <mxCell id="InmXNxn3KJAxk9QooRhl-4" value="&lt;b&gt;阻塞队列为空，线程池中工作线程数量为0&lt;/b&gt;" style="text;html=1;strokeColor=none;fillColor=none;align=center;verticalAlign=middle;whiteSpace=wrap;rounded=0;sketch=1;" vertex="1" parent="1">
          <mxGeometry x="515" y="266" width="136" height="30" as="geometry" />
        </mxCell>
        <mxCell id="InmXNxn3KJAxk9QooRhl-5" value="&lt;b&gt;线程池中工作线程数量为0&lt;/b&gt;" style="text;html=1;strokeColor=none;fillColor=none;align=center;verticalAlign=middle;whiteSpace=wrap;rounded=0;sketch=1;" vertex="1" parent="1">
          <mxGeometry x="509.5" y="394" width="147" height="30" as="geometry" />
        </mxCell>
        <mxCell id="InmXNxn3KJAxk9QooRhl-6" value="&lt;b&gt;terminated()&lt;/b&gt;" style="text;html=1;strokeColor=none;fillColor=none;align=center;verticalAlign=middle;whiteSpace=wrap;rounded=0;sketch=1;" vertex="1" parent="1">
          <mxGeometry x="746" y="306" width="60" height="30" as="geometry" />
        </mxCell>
      </root>
    </mxGraphModel>
  </diagram>
</mxfile>
